<?xml version="1.0" standalone="no"?>
<!DOCTYPE svg PUBLIC "-//W3C//DTD SVG 20010904//EN"
 "http://www.w3.org/TR/2001/REC-SVG-20010904/DTD/svg10.dtd">
<svg version="1.0" xmlns="http://www.w3.org/2000/svg"
 width="512.000000pt" height="512.000000pt" viewBox="0 0 512.000000 512.000000"
 preserveAspectRatio="xMidYMid meet">

<g transform="translate(0.000000,512.000000) scale(0.100000,-0.100000)"
fill="#000000" stroke="none">
<path d="M84 5036 c-55 -55 -74 -81 -74 -100 0 -22 3 -25 18 -17 19 11 182
175 182 185 0 3 -12 6 -26 6 -19 0 -46 -20 -100 -74z"/>
<path d="M203 4958 c-174 -172 -196 -198 -191 -231 3 -19 32 5 192 163 103
102 192 193 197 203 8 14 5 17 -17 17 -21 0 -60 -33 -181 -152z"/>
<path d="M303 4858 c-140 -139 -264 -265 -275 -281 -10 -15 -18 -37 -16 -50 3
-18 49 23 292 263 158 157 292 293 297 303 8 14 5 17 -17 17 -22 0 -75 -47
-281 -252z"/>
<path d="M402 4758 c-194 -194 -362 -365 -373 -381 -11 -15 -19 -37 -17 -50 4
-18 67 40 392 363 213 212 392 393 397 403 8 14 5 17 -18 17 -22 0 -89 -62
-381 -352z"/>
<path d="M502 4658 c-249 -249 -462 -465 -473 -481 -11 -15 -19 -37 -17 -50 4
-18 84 57 492 463 268 267 492 493 497 503 8 14 5 17 -18 17 -22 0 -104 -76
-481 -452z"/>
<path d="M602 4558 c-304 -304 -562 -565 -573 -581 -11 -15 -19 -37 -17 -50 4
-18 101 75 592 563 323 322 592 593 597 603 8 14 5 17 -18 17 -23 0 -118 -91
-581 -552z"/>
<path d="M702 4458 c-359 -359 -662 -665 -673 -681 -11 -15 -19 -37 -17 -50 4
-18 118 92 692 663 378 377 692 693 697 703 8 14 5 17 -18 17 -23 0 -133 -106
-681 -652z"/>
<path d="M1381 4934 c-97 -97 -171 -174 -166 -171 77 37 169 107 263 200 133
132 144 147 106 147 -21 0 -63 -36 -203 -176z"/>
<path d="M1682 5035 l-77 -75 55 20 c52 20 120 74 141 113 8 14 5 17 -16 17
-18 0 -47 -21 -103 -75z"/>
<path d="M1935 5085 c-16 -13 -26 -24 -21 -25 23 -1 86 24 90 36 9 23 -36 16
-69 -11z"/>
<path d="M3148 5096 c-21 -15 -13 -26 18 -26 13 0 28 9 34 20 9 17 8 20 -12
20 -13 0 -31 -7 -40 -14z"/>
<path d="M3327 5079 c-43 -35 -45 -44 -15 -52 23 -6 68 27 89 66 16 29 -32 21
-74 -14z"/>
<path d="M3501 5054 c-34 -31 -61 -60 -61 -64 0 -4 10 -10 22 -14 18 -4 34 6
76 47 71 69 81 87 48 87 -16 0 -46 -19 -85 -56z"/>
<path d="M3668 5021 c-90 -86 -91 -89 -69 -101 22 -11 29 -7 108 71 103 102
114 119 78 119 -19 0 -50 -23 -117 -89z"/>
<path d="M3839 4993 c-65 -64 -119 -120 -119 -124 0 -4 10 -11 21 -14 18 -6
41 13 136 106 134 133 145 149 108 149 -20 0 -55 -28 -146 -117z"/>
<path d="M4004 4958 c-85 -83 -154 -155 -154 -159 0 -4 10 -11 21 -14 18 -6
46 17 171 141 82 82 154 157 159 167 8 14 5 17 -17 17 -21 0 -60 -33 -180
-152z"/>
<path d="M4164 4918 c-151 -150 -191 -194 -183 -205 6 -7 17 -13 23 -13 12 0
406 391 406 403 0 4 -12 7 -26 7 -21 0 -67 -40 -220 -192z"/>
<path d="M4321 4875 c-225 -224 -235 -235 -216 -249 19 -14 32 -3 253 217 128
128 238 240 243 250 8 14 5 17 -17 17 -22 0 -72 -44 -263 -235z"/>
<path d="M4479 4833 c-217 -215 -276 -280 -267 -290 6 -7 16 -13 22 -13 12 0
576 561 576 573 0 4 -12 7 -27 7 -21 0 -79 -53 -304 -277z"/>
<path d="M4631 4785 c-311 -310 -325 -325 -308 -342 17 -17 32 -3 343 307 179
179 330 333 335 343 8 14 5 17 -18 17 -22 0 -84 -58 -352 -325z"/>
<path d="M4760 4713 c-338 -336 -354 -353 -337 -370 16 -17 32 -3 338 302 176
176 329 332 340 348 11 15 19 37 17 50 -4 18 -61 -34 -358 -330z"/>
<path d="M4808 4563 c-164 -164 -298 -303 -298 -309 0 -6 6 -16 13 -22 10 -9
78 54 305 282 237 237 292 297 292 319 0 15 -3 27 -7 27 -4 0 -141 -134 -305
-297z"/>
<path d="M4853 4408 c-139 -139 -253 -258 -253 -264 0 -6 6 -16 13 -23 21 -16
507 475 507 512 0 15 -3 27 -7 27 -4 0 -121 -114 -260 -252z"/>
<path d="M4895 4248 c-210 -207 -219 -218 -202 -235 16 -17 26 -9 203 167 207
206 227 230 222 263 -3 19 -37 -11 -223 -195z"/>
<path d="M4936 4089 c-168 -166 -178 -177 -166 -199 12 -22 17 -18 162 126
170 169 191 195 186 227 -3 19 -30 -4 -182 -154z"/>
<path d="M689 4037 c-18 -12 -44 -38 -56 -56 l-23 -34 0 -1136 c0 -1087 1
-1138 19 -1171 10 -19 36 -45 57 -57 l39 -23 598 0 c486 0 597 2 597 13 0 28
56 66 120 83 120 30 207 6 225 -63 l6 -26 32 35 c46 50 90 56 169 23 100 -42
93 -44 93 24 l0 61 -902 0 -903 0 0 1000 0 1000 1540 0 1540 0 2 -432 3 -431
65 -19 c36 -10 68 -18 73 -18 4 0 6 258 5 574 -3 565 -3 575 -24 603 -11 15
-36 38 -54 51 l-33 22 -1577 0 -1577 0 -34 -23z m186 -99 c37 -32 37 -83 1
-115 -35 -30 -71 -29 -101 2 -72 71 24 178 100 113z m240 0 c37 -32 37 -83 1
-115 -35 -30 -71 -29 -101 2 -72 71 24 178 100 113z m248 -5 c28 -26 23 -87
-10 -113 -50 -39 -123 -4 -123 59 0 68 80 101 133 54z"/>
<path d="M4971 3924 c-135 -132 -143 -142 -131 -164 12 -22 15 -19 127 91 134
133 156 161 151 192 -3 19 -24 2 -147 -119z"/>
<path d="M187 3741 c-141 -141 -177 -184 -177 -205 0 -38 15 -27 147 106 75
76 129 140 162 196 28 45 49 82 47 82 -1 0 -82 -80 -179 -179z"/>
<path d="M5007 3761 c-59 -58 -107 -110 -107 -115 0 -6 5 -18 10 -26 8 -12 25
0 90 65 100 98 122 128 118 158 -3 19 -17 8 -111 -82z"/>
<path d="M5034 3588 c-76 -73 -81 -82 -64 -108 9 -12 23 -2 80 57 49 51 70 80
70 98 0 14 -3 25 -6 25 -3 0 -39 -32 -80 -72z"/>
<path d="M86 3440 c-54 -57 -76 -87 -76 -105 0 -21 3 -24 18 -16 36 20 100 98
120 149 11 28 19 52 18 52 -2 0 -38 -36 -80 -80z"/>
<path d="M5060 3414 c-52 -48 -57 -59 -40 -84 9 -12 18 -7 55 33 27 30 45 58
45 73 0 13 -2 24 -5 24 -3 0 -28 -21 -55 -46z"/>
<path d="M5088 3240 c-19 -15 -28 -31 -28 -51 0 -16 4 -29 9 -29 17 0 52 59
49 81 l-3 21 -27 -22z"/>
<path d="M36 3187 c-31 -41 -36 -83 -8 -68 15 8 48 101 36 101 -2 0 -14 -15
-28 -33z"/>
<path d="M5101 3051 c-8 -6 -11 -16 -6 -31 9 -27 28 -12 23 19 -2 14 -7 18
-17 12z"/>
<path d="M3400 2759 c-117 -32 -138 -40 -143 -54 -4 -8 0 -51 8 -97 8 -45 14
-82 12 -83 -1 -1 -23 -13 -48 -27 l-47 -25 -67 53 c-37 30 -75 54 -85 54 -22
0 -180 -150 -180 -172 0 -9 25 -47 55 -83 l55 -68 -22 -36 c-37 -63 -39 -64
-103 -52 -85 16 -123 14 -134 -6 -18 -35 -53 -181 -49 -209 3 -26 11 -32 83
-60 l80 -32 3 -59 3 -60 -83 -30 c-79 -29 -83 -32 -86 -63 -4 -40 47 -210 65
-217 8 -3 52 -1 98 4 l85 9 30 -49 30 -48 -55 -68 c-30 -38 -55 -75 -55 -83 0
-17 162 -178 180 -178 7 0 44 25 82 56 l69 57 47 -26 c37 -20 47 -31 45 -49
-1 -13 -5 -55 -9 -95 -7 -70 -6 -73 17 -83 46 -20 202 -49 219 -40 8 5 31 45
49 89 l33 81 55 0 54 0 19 -47 c27 -64 46 -96 63 -107 18 -11 193 36 215 58
12 12 12 25 3 78 -18 102 -16 113 25 137 19 12 43 21 53 21 10 0 47 -22 81
-50 34 -27 66 -50 71 -50 8 0 162 155 167 169 1 4 -23 37 -53 74 -30 36 -55
71 -55 77 0 24 46 90 63 90 10 0 50 -5 88 -12 60 -9 72 -9 85 4 22 22 68 207
55 222 -6 7 -44 28 -86 47 -66 30 -75 37 -75 61 0 53 16 72 90 107 40 19 74
40 77 47 8 21 -46 208 -64 222 -9 6 -24 10 -32 7 -9 -2 -46 -7 -82 -10 l-66
-6 -25 42 -26 43 54 67 c30 38 54 76 54 87 0 23 -146 182 -167 182 -9 0 -46
-25 -84 -56 l-68 -55 -41 26 c-40 25 -42 29 -36 63 17 99 18 148 5 158 -8 6
-60 24 -117 39 -77 22 -108 26 -120 18 -9 -5 -30 -45 -46 -87 l-29 -76 -52 0
-53 0 -28 73 c-15 39 -31 78 -37 85 -11 14 -66 14 -117 1z m312 -480 c189 -39
340 -201 370 -397 31 -199 -78 -399 -269 -489 -68 -33 -89 -38 -169 -41 -143
-7 -244 29 -340 120 -103 98 -154 211 -154 341 1 138 41 238 135 333 116 117
271 165 427 133z"/>
<path d="M5111 2224 c0 -11 3 -14 6 -6 3 7 2 16 -1 19 -3 4 -6 -2 -5 -13z"/>
<path d="M12 2135 c0 -16 2 -22 5 -12 2 9 2 23 0 30 -3 6 -5 -1 -5 -18z"/>
<path d="M5101 2050 c-14 -8 -44 -90 -37 -98 2 -2 16 12 31 32 28 37 32 83 6
66z"/>
<path d="M26 1976 c-9 -15 -16 -36 -14 -48 3 -20 3 -20 26 -2 18 16 21 24 14
48 l-8 29 -18 -27z"/>
<path d="M5060 1813 c-33 -32 -56 -66 -70 -103 l-20 -55 75 77 c53 55 75 85
75 103 0 14 -3 25 -6 25 -3 0 -27 -21 -54 -47z"/>
<path d="M46 1799 c-30 -36 -49 -89 -31 -89 14 0 85 75 85 89 -1 42 -17 43
-54 0z"/>
<path d="M72 1625 c-41 -44 -62 -74 -62 -90 0 -14 3 -25 6 -25 14 0 134 125
134 139 -1 46 -18 41 -78 -24z"/>
<path d="M4995 1548 c-93 -91 -129 -134 -159 -190 l-38 -73 141 140 c162 159
184 186 179 218 -3 19 -20 6 -123 -95z"/>
<path d="M2060 1558 c-46 -13 -50 -21 -50 -99 0 -65 0 -65 -35 -82 -46 -22
-45 -22 -105 15 l-52 32 -49 -51 c-27 -28 -49 -56 -49 -61 0 -5 16 -29 35 -53
38 -48 41 -64 23 -106 -17 -38 -25 -43 -84 -43 -68 0 -79 -14 -79 -99 l0 -65
60 -18 c65 -20 70 -26 80 -76 6 -32 3 -38 -45 -81 l-52 -46 37 -62 c21 -35 42
-63 48 -63 5 0 37 10 69 22 l59 21 31 -30 c30 -30 30 -32 19 -82 -18 -84 -17
-86 50 -115 33 -14 64 -26 70 -26 5 0 25 25 46 56 29 44 41 54 57 50 12 -3 32
-6 46 -6 21 0 29 -9 48 -59 13 -33 29 -62 37 -64 14 -6 113 14 133 27 7 4 12
34 12 76 0 67 1 70 30 85 41 21 53 19 111 -17 l51 -31 49 54 c26 30 48 58 49
62 0 5 -16 28 -36 53 -31 37 -35 49 -30 76 10 52 19 58 87 66 76 8 91 27 87
111 l-3 55 -62 18 -62 18 -7 47 c-7 47 -7 47 42 91 l48 44 -34 64 c-19 35 -40
64 -47 64 -7 0 -37 -9 -68 -21 l-55 -21 -34 29 c-40 33 -40 32 -22 101 8 30
13 59 10 66 -3 7 -30 24 -62 37 -31 13 -60 25 -64 27 -4 2 -24 -22 -45 -53
l-37 -57 -50 7 c-28 3 -51 7 -52 8 0 1 -13 28 -27 60 -24 53 -28 57 -59 56
-18 0 -49 -5 -68 -11z m263 -336 c56 -25 114 -83 141 -141 31 -69 29 -170 -6
-237 -115 -220 -439 -193 -513 42 -71 227 160 432 378 336z"/>
<path d="M96 1450 c-62 -65 -86 -96 -86 -115 0 -36 17 -25 119 78 68 69 82 89
76 106 -3 11 -10 21 -14 21 -5 0 -47 -40 -95 -90z"/>
<path d="M4848 1203 c-198 -198 -258 -252 -258 -235 0 18 -12 8 -61 -48 -34
-39 -62 -78 -63 -86 -1 -8 -183 -196 -404 -417 -221 -222 -402 -406 -402 -410
0 -4 12 -7 27 -7 22 0 101 74 443 415 298 298 422 415 438 415 16 0 22 6 22
22 0 16 79 101 265 288 214 215 265 272 265 293 0 15 -3 27 -7 27 -4 0 -123
-116 -265 -257z"/>
<path d="M132 1286 c-93 -95 -122 -130 -122 -150 0 -38 16 -27 152 111 110
111 116 119 104 141 -12 22 -16 19 -134 -102z"/>
<path d="M167 1121 c-123 -125 -157 -164 -157 -185 0 -22 3 -25 18 -17 9 5 86
79 171 164 140 141 152 156 142 176 -7 11 -13 21 -15 21 -1 0 -73 -71 -159
-159z"/>
<path d="M4496 650 c-339 -338 -622 -623 -627 -632 -8 -15 -5 -18 18 -18 23 0
123 95 611 583 321 320 592 594 603 610 11 15 19 37 17 50 -4 18 -106 -80
-622 -593z"/>
<path d="M202 956 c-152 -153 -192 -199 -192 -220 0 -14 3 -26 7 -26 4 0 98
91 209 202 173 171 201 204 193 220 -5 10 -13 18 -17 18 -5 0 -94 -87 -200
-194z"/>
<path d="M4596 550 c-284 -283 -522 -523 -527 -533 -8 -14 -5 -17 18 -17 23 0
108 81 511 483 266 265 492 494 503 510 11 15 19 37 17 50 -4 18 -89 -62 -522
-493z"/>
<path d="M242 797 c-188 -189 -232 -239 -232 -261 0 -22 3 -25 18 -17 9 5 122
115 251 245 203 203 233 237 222 250 -8 9 -16 16 -20 16 -4 0 -111 -105 -239
-233z"/>
<path d="M287 642 c-226 -227 -277 -283 -277 -306 0 -22 3 -25 17 -17 10 5
144 136 297 290 242 242 278 282 267 295 -8 9 -16 16 -20 16 -4 0 -131 -125
-284 -278z"/>
<path d="M4696 450 c-229 -228 -422 -423 -427 -432 -8 -15 -5 -18 18 -18 22 0
93 66 411 383 211 210 392 394 403 410 11 15 19 37 17 50 -4 18 -72 -45 -422
-393z"/>
<path d="M332 487 c-265 -266 -322 -328 -322 -351 0 -22 3 -25 18 -17 9 5 163
156 341 334 234 235 322 329 318 341 -4 9 -12 16 -20 16 -7 0 -158 -145 -335
-323z"/>
<path d="M408 362 c-192 -191 -348 -351 -348 -355 0 -4 12 -7 27 -7 22 0 89
62 365 337 194 194 337 344 336 353 -2 8 -10 16 -18 18 -9 1 -165 -148 -362
-346z"/>
<path d="M4796 350 c-174 -173 -322 -323 -327 -332 -8 -15 -5 -18 17 -18 23 0
80 52 312 282 156 156 293 295 303 311 11 15 19 37 17 50 -4 18 -54 -28 -322
-293z"/>
<path d="M560 313 c-257 -258 -301 -307 -283 -311 13 -2 35 6 50 17 16 11 151
143 302 295 238 238 273 277 262 290 -8 9 -16 16 -20 16 -4 0 -144 -138 -311
-307z"/>
<path d="M715 268 c-220 -221 -256 -263 -238 -266 13 -2 35 6 50 17 16 11 131
123 257 250 199 199 228 232 217 245 -8 9 -16 16 -20 16 -4 0 -123 -118 -266
-262z"/>
<path d="M4896 250 c-119 -118 -222 -223 -227 -232 -8 -15 -5 -18 17 -18 21 0
65 37 211 183 205 202 226 227 221 260 -3 19 -37 -11 -222 -193z"/>
<path d="M872 227 c-117 -117 -212 -216 -212 -220 0 -4 12 -7 27 -7 37 0 448
407 432 427 -7 7 -17 13 -23 13 -6 0 -107 -96 -224 -213z"/>
<path d="M1030 183 c-149 -151 -172 -178 -153 -181 32 -5 58 16 227 186 141
142 161 172 118 172 -10 0 -96 -80 -192 -177z"/>
<path d="M3759 284 c-101 -60 -317 -276 -282 -282 13 -2 35 6 50 17 29 20 322
311 313 310 -3 0 -39 -20 -81 -45z"/>
<path d="M1195 148 c-120 -122 -137 -143 -118 -146 31 -5 59 17 193 153 92 93
112 117 100 125 -8 5 -20 10 -25 10 -6 0 -74 -64 -150 -142z"/>
<path d="M4996 150 c-136 -133 -149 -150 -111 -150 18 0 49 23 111 82 102 98
127 130 122 161 -3 19 -19 7 -122 -93z"/>
<path d="M1364 117 c-95 -97 -106 -112 -87 -115 30 -4 60 18 161 120 82 83 83
85 59 95 -23 11 -32 4 -133 -100z"/>
<path d="M1536 90 c-42 -43 -76 -80 -76 -84 0 -3 11 -6 25 -6 17 0 48 22 100
71 41 39 73 75 70 79 -3 4 -13 10 -24 13 -15 3 -39 -15 -95 -73z"/>
<path d="M3403 132 c-42 -17 -115 -80 -134 -114 -8 -15 -5 -18 16 -18 18 0 48
21 103 75 42 41 73 74 67 74 -5 0 -29 -8 -52 -17z"/>
<path d="M1706 60 c-25 -27 -46 -52 -46 -55 0 -3 11 -5 24 -5 27 0 130 86 120
101 -14 23 -53 7 -98 -41z"/>
<path d="M1884 38 c-27 -33 -27 -33 -5 -36 13 -2 37 8 58 24 33 25 34 28 17
35 -33 13 -41 10 -70 -23z"/>
<path d="M3113 49 c-18 -5 -37 -18 -43 -29 -17 -32 29 -26 70 10 36 30 29 35
-27 19z"/>
<path d="M5085 35 l-30 -30 24 -3 c30 -5 44 9 39 39 l-3 24 -30 -30z"/>
<path d="M2066 15 c-7 -20 37 -20 54 0 11 13 8 15 -18 15 -17 0 -32 -6 -36
-15z"/>
<path d="M2873 3 c9 -2 23 -2 30 0 6 3 -1 5 -18 5 -16 0 -22 -2 -12 -5z"/>
</g>
</svg>
