<?xml version="1.0" standalone="no"?>
<!DOCTYPE svg PUBLIC "-//W3C//DTD SVG 20010904//EN"
 "http://www.w3.org/TR/2001/REC-SVG-20010904/DTD/svg10.dtd">
<svg version="1.0" xmlns="http://www.w3.org/2000/svg"
 width="512.000000pt" height="512.000000pt" viewBox="0 0 512.000000 512.000000"
 preserveAspectRatio="xMidYMid meet">

<g transform="translate(0.000000,512.000000) scale(0.100000,-0.100000)"
fill="#000000" stroke="none">
<path d="M731 4080 c-39 -9 -77 -35 -105 -74 -21 -27 -21 -34 -24 -1169 l-2
-1142 22 -45 c15 -30 37 -53 63 -67 38 -21 52 -23 238 -23 l197 0 0 -195 c0
-219 8 -251 72 -297 l33 -23 1584 -3 1584 -2 43 21 c26 12 53 36 66 57 l23 37
3 1123 c2 798 -1 1136 -9 1165 -14 52 -63 102 -114 116 -22 6 -119 11 -217 11
l-176 0 -4 198 c-3 175 -5 201 -23 231 -26 44 -62 70 -111 81 -48 12 -3095 11
-3143 0z m146 -125 c45 -32 31 -118 -22 -131 -39 -10 -73 4 -90 36 -28 53 6
110 65 110 14 0 35 -7 47 -15z m253 -12 c39 -50 3 -123 -60 -123 -63 0 -99 73
-60 123 17 21 30 27 60 27 30 0 43 -6 60 -27z m235 7 c27 -30 25 -88 -4 -111
-52 -42 -125 -10 -125 54 0 49 27 77 74 77 24 0 43 -7 55 -20z m2475 -1230 l0
-1000 -1538 2 -1537 3 -3 998 -2 997 1540 0 1540 0 0 -1000z m520 -520 l0
-1000 -1537 2 -1538 3 0 175 0 175 1307 5 c1306 5 1307 5 1335 26 15 11 38 36
51 54 l22 33 0 763 0 764 180 0 180 0 0 -1000z"/>
</g>
</svg>
