<?xml version="1.0" standalone="no"?>
<!DOCTYPE svg PUBLIC "-//W3C//DTD SVG 20010904//EN"
 "http://www.w3.org/TR/2001/REC-SVG-20010904/DTD/svg10.dtd">
<svg version="1.0" xmlns="http://www.w3.org/2000/svg"
 width="512.000000pt" height="512.000000pt" viewBox="0 0 512.000000 512.000000"
 preserveAspectRatio="xMidYMid meet">

<g transform="translate(0.000000,512.000000) scale(0.100000,-0.100000)"
fill="#000000" stroke="none">
<path d="M0 2560 l0 -2560 2560 0 2560 0 0 2560 0 2560 -2560 0 -2560 0 0
-2560z m2765 2370 c532 -48 1033 -277 1414 -645 377 -365 616 -824 698 -1345
25 -161 25 -530 -1 -685 -95 -577 -364 -1066 -790 -1432 -531 -456 -1230 -652
-1916 -537 -494 83 -942 320 -1295 685 -353 366 -573 823 -640 1332 -19 152
-20 431 0 584 68 519 299 994 662 1359 491 494 1181 746 1868 684z"/>
<path d="M2320 4679 c-946 -109 -1701 -848 -1836 -1796 -22 -156 -22 -420 0
-577 63 -439 257 -838 561 -1155 707 -737 1839 -861 2677 -295 511 345 837
871 914 1477 22 176 15 473 -15 633 -80 424 -266 785 -560 1088 -342 350 -755
556 -1245 621 -125 16 -371 18 -496 4z m540 -24 c223 -35 402 -91 605 -190
711 -346 1165 -1072 1165 -1864 0 -547 -220 -1080 -606 -1466 -630 -630 -1584
-790 -2381 -400 -419 205 -751 535 -954 950 -100 205 -160 399 -193 626 -21
141 -21 433 0 580 120 866 783 1571 1636 1744 68 13 166 29 218 34 128 13 381
6 510 -14z"/>
<path d="M1645 3653 c-75 -6 -300 -34 -318 -39 -16 -5 -17 -60 -15 -1027 l3
-1022 195 0 195 0 3 381 2 381 183 6 c252 8 374 37 525 126 197 115 316 350
299 591 -13 176 -65 300 -171 406 -107 107 -252 169 -456 194 -77 9 -349 11
-445 3z m327 -303 c159 -18 259 -73 313 -171 24 -45 30 -69 33 -140 9 -183
-66 -305 -221 -359 -76 -27 -217 -42 -309 -34 l-78 7 0 343 0 343 33 6 c17 2
52 6 77 8 25 2 50 4 55 5 6 1 49 -3 97 -8z"/>
<path d="M3222 3100 c-146 -21 -266 -82 -359 -183 -74 -81 -97 -146 -97 -272
-1 -130 22 -191 105 -279 67 -72 135 -111 322 -187 67 -27 133 -57 147 -67
101 -75 92 -210 -16 -263 -42 -20 -56 -21 -162 -16 -124 5 -213 27 -306 74
-29 15 -52 21 -57 16 -13 -13 -81 -272 -74 -283 9 -14 155 -67 240 -86 115
-26 331 -24 440 5 174 46 286 130 355 266 34 67 35 73 34 180 0 147 -22 204
-112 297 -71 74 -143 116 -325 188 -59 23 -125 55 -147 71 -114 83 -78 219 65
249 80 17 216 -4 311 -49 37 -17 70 -28 74 -24 7 8 80 261 80 276 0 11 -69 37
-169 63 -106 27 -254 37 -349 24z"/>
</g>
</svg>
